<svg width="33" height="33" viewBox="0 0 33 33" fill="none" xmlns="http://www.w3.org/2000/svg">
<path d="M21.0807 19.0514H20.0274L19.654 18.6914C20.4873 17.7234 21.0963 16.5831 21.4374 15.3522C21.7786 14.1213 21.8434 12.8303 21.6274 11.5714C21.0007 7.86473 17.9074 4.90473 14.174 4.4514C12.8615 4.28535 11.5284 4.42176 10.2767 4.85018C9.02504 5.27861 7.88795 5.98769 6.95247 6.92317C6.01699 7.85866 5.3079 8.99575 4.87948 10.2474C4.45106 11.4991 4.31465 12.8322 4.4807 14.1447C4.93403 17.8781 7.89403 20.9714 11.6007 21.5981C12.8596 21.8141 14.1506 21.7493 15.3815 21.4081C16.6124 21.067 17.7527 20.458 18.7207 19.6247L19.0807 19.9981V21.0514L24.7474 26.7181C25.294 27.2647 26.1874 27.2647 26.734 26.7181C27.2807 26.1714 27.2807 25.2781 26.734 24.7314L21.0807 19.0514ZM13.0807 19.0514C9.7607 19.0514 7.0807 16.3714 7.0807 13.0514C7.0807 9.7314 9.7607 7.0514 13.0807 7.0514C16.4007 7.0514 19.0807 9.7314 19.0807 13.0514C19.0807 16.3714 16.4007 19.0514 13.0807 19.0514Z" fill="#3F6212"/>
</svg>
