<svg width="31" height="41" viewBox="0 0 31 41" fill="none" xmlns="http://www.w3.org/2000/svg">
<path fill-rule="evenodd" clip-rule="evenodd" d="M15.5 9.25C16.163 9.25 16.7989 8.98661 17.2678 8.51777C17.7366 8.04893 18 7.41304 18 6.75C18 6.08696 17.7366 5.45107 17.2678 4.98223C16.7989 4.51339 16.163 4.25 15.5 4.25C14.837 4.25 14.2011 4.51339 13.7322 4.98223C13.2634 5.45107 13 6.08696 13 6.75C13 7.41304 13.2634 8.04893 13.7322 8.51777C14.2011 8.98661 14.837 9.25 15.5 9.25ZM15.5 0.5C16.9408 0.499706 18.3375 0.997229 19.4536 1.90837C20.5698 2.81951 21.3368 4.08829 21.625 5.5H28C28.663 5.5 29.2989 5.76339 29.7678 6.23223C30.2366 6.70107 30.5 7.33696 30.5 8V38C30.5 38.663 30.2366 39.2989 29.7678 39.7678C29.2989 40.2366 28.663 40.5 28 40.5H3C2.33696 40.5 1.70107 40.2366 1.23223 39.7678C0.763392 39.2989 0.5 38.663 0.5 38V8C0.5 7.33696 0.763392 6.70107 1.23223 6.23223C1.70107 5.76339 2.33696 5.5 3 5.5H9.375C9.66316 4.08829 10.4302 2.81951 11.5464 1.90837C12.6625 0.997229 14.0592 0.499706 15.5 0.5ZM13 13H21.75V9.25H26.75V36.75H4.25V9.25H9.25V13H13ZM21.825 21.2C22.0092 21.0283 22.157 20.8213 22.2595 20.5913C22.3619 20.3613 22.417 20.1131 22.4215 19.8613C22.4259 19.6095 22.3796 19.3595 22.2853 19.126C22.191 18.8925 22.0506 18.6805 21.8726 18.5024C21.6945 18.3244 21.4825 18.184 21.249 18.0897C21.0155 17.9954 20.7655 17.9491 20.5137 17.9535C20.2619 17.958 20.0137 18.0131 19.7837 18.1155C19.5537 18.218 19.3467 18.3658 19.175 18.55L14.25 23.475L13.075 22.3C12.7196 21.9688 12.2494 21.7885 11.7637 21.7971C11.2779 21.8056 10.8145 22.0024 10.4709 22.3459C10.1274 22.6895 9.93063 23.1529 9.92206 23.6387C9.91349 24.1244 10.0938 24.5946 10.425 24.95L12.925 27.45C13.2766 27.8011 13.7531 27.9984 14.25 27.9984C14.7469 27.9984 15.2234 27.8011 15.575 27.45L21.825 21.2Z" fill="#365314"/>
</svg>
