<svg width="31" height="31" viewBox="0 0 31 31" fill="none" xmlns="http://www.w3.org/2000/svg">
<path d="M30.1893 14.4864C30.0335 14.2133 29.8247 13.9741 29.5752 13.7828C29.3256 13.5915 29.0404 13.4519 28.7362 13.3723C28.0091 13.1838 27.2616 13.085 26.5105 13.0781C26.7833 11.3775 26.659 9.63675 26.1472 7.99215C25.9628 7.41455 25.57 6.92629 25.0453 6.62251C24.5205 6.31873 23.9015 6.2212 23.3088 6.34891C22.1917 6.59541 21.1214 7.01937 20.1386 7.60465C19.3483 6.15323 18.2635 4.88288 16.9538 3.87497C16.534 3.56185 16.0244 3.3927 15.5007 3.3927C14.977 3.3927 14.4673 3.56185 14.0475 3.87497C12.7378 4.88288 11.6531 6.15323 10.8628 7.60465C9.88111 7.01931 8.81204 6.59495 7.69617 6.3477C7.1033 6.22004 6.48413 6.31775 5.95938 6.62177C5.43462 6.92579 5.04189 7.41433 4.85774 7.99215C4.34596 9.63675 4.22163 11.3775 4.49445 13.0781C3.74211 13.0847 2.99341 13.1835 2.26512 13.3723C1.96093 13.4519 1.67571 13.5915 1.42617 13.7828C1.17664 13.9741 0.967832 14.2133 0.811992 14.4864C0.650784 14.764 0.546356 15.0708 0.504779 15.3891C0.463202 15.7073 0.485306 16.0307 0.569804 16.3404C0.999687 17.9339 2.31355 20.9613 6.27817 23.3299C10.1919 25.6718 13.6552 25.6718 15.5104 25.6718C17.3655 25.6718 20.8094 25.6718 24.722 23.3299C28.6866 20.9613 30.0004 17.9339 30.4303 16.3404C30.515 16.0308 30.5373 15.7075 30.4959 15.3892C30.4546 15.0709 30.3503 14.764 30.1893 14.4864ZM7.77004 20.8341C5.07086 19.2212 3.97375 17.3067 3.53176 16.0691C4.11393 15.9761 4.70557 15.9574 5.29246 16.0134C5.58469 16.7518 5.93074 17.4678 6.32781 18.1555C6.9932 19.3057 7.78922 20.3752 8.70004 21.3427C8.39246 21.1914 8.08246 21.0218 7.77004 20.8341ZM9.56707 17.8334C9.31277 17.4702 9.06817 17.1069 8.84051 16.7085C6.94781 13.405 7.12582 10.77 7.50848 9.29512C8.30249 9.5282 9.05748 9.87794 9.74871 10.3329C9.37932 11.6672 9.19595 13.0462 9.20379 14.4307C9.19852 15.5749 9.32036 16.7161 9.56707 17.8334ZM15.5007 22.435C14.3236 21.4578 12.11 19.0105 12.11 14.4271C12.11 9.89575 14.2897 7.43997 15.5007 6.4252C16.7116 7.43997 18.8913 9.89575 18.8913 14.4271C18.8913 19.0117 16.6777 21.4614 15.5007 22.4386V22.435ZM21.4343 17.8334C21.681 16.7161 21.8028 15.5749 21.7975 14.4307C21.8054 13.0462 21.622 11.6672 21.2526 10.3329C21.9438 9.87752 22.6988 9.52737 23.4929 9.29391C23.8719 10.77 24.0499 13.4111 22.1536 16.7085C21.9307 17.102 21.6861 17.4762 21.4343 17.8334ZM23.2337 20.8341C22.9237 21.0194 22.6173 21.1865 22.3158 21.3379C23.223 20.3714 24.0157 19.3035 24.6784 18.1555C25.0754 17.4678 25.4215 16.7518 25.7137 16.0134C26.3006 15.9574 26.8922 15.9761 27.4744 16.0691C27.0276 17.3067 25.9305 19.2212 23.2313 20.8341H23.2337Z" fill="#F6F8FA"/>
</svg>
